# xmcd
#
# Track frame offsets:
#	187
#	12287
#	26617
#	38785
#	50960
#	64432
#	77667
#	88322
#	102205
#	115900
#
# Disc length: 1676 seconds
#
# Revision: 4
# Processed by: cddbd v1.5.2PL0 Copyright (c) Steve Scherf et al.
# Submitted via: audiograbber 1.83.01
#
DISCID=85068a0a
DTITLE=Dolly Parton - The Best Of Dolly Parton
DYEAR=1990
DGENRE=Country
TTITLE0=Jolene
TTITLE1=Lonely Comin' Down
TTITLE2=The Bargain Store
TTITLE3=Touch Your Woman
TTITLE4=When I Sing For Him
TTITLE5=I Will Always Love You
TTITLE6=Love Is Like A Butterfly
TTITLE7=Coat Of Many Colors
TTITLE8=My Tennessee Mountain Home
TTITLE9=Traveling Man
EXTD=
EXTT0=
EXTT1=Written by Porter Wagoner
EXTT2=
EXTT3=
EXTT4=Written by Porter Wagoner
EXTT5=
EXTT6=
EXTT7=
EXTT8=
EXTT9=
PLAYORDER=
